<svg width="21" height="21" viewBox="0 0 21 21" fill="none" xmlns="http://www.w3.org/2000/svg">
<g clip-path="url(#clip0_1_5036)">
<path fill-rule="evenodd" clip-rule="evenodd" d="M0.289978 6.48652V5.18652L5.28998 0.186523H15.29L20.29 5.18652V6.48652L10.29 20.1865L0.289978 6.48652ZM2.78998 6.43652L10.29 17.0615L5.28998 6.43652H2.78998ZM17.79 6.43652H15.29L10.29 17.0615L17.79 6.43652ZM7.78998 6.43652L10.29 13.9365L12.79 6.43652H7.78998ZM5.28998 2.68652L2.78998 5.18652H5.28998L7.78998 2.68652H5.28998ZM15.29 2.68652H12.79L15.29 5.18652H17.79L15.29 2.68652ZM9.03998 2.68652L7.78998 5.18652H12.79L11.54 2.68652H9.03998Z" fill="white"/>
</g>
<defs>
<clipPath id="clip0_1_5036">
<rect width="20" height="20" fill="white" transform="translate(0.289825 0.187012)"/>
</clipPath>
</defs>
</svg>
