<svg width="21" height="21" viewBox="0 0 21 21" fill="none" xmlns="http://www.w3.org/2000/svg">
<g clip-path="url(#clip0_4_7077)">
<path d="M9.84074 13.2673V14.9126H11.486V13.2673H9.84074Z" fill="#BD002A"/>
<path d="M9.84074 6.68604V11.622H11.486V6.68604H9.84074Z" fill="#BD002A"/>
<path fill-rule="evenodd" clip-rule="evenodd" d="M10.6634 2.57275C6.12233 2.57275 2.43683 6.25825 2.43683 10.7993C2.43683 15.3404 6.12233 19.0259 10.6634 19.0259C15.2045 19.0259 18.89 15.3404 18.89 10.7993C18.89 6.25825 15.2045 2.57275 10.6634 2.57275ZM17.2447 10.7985C17.2447 14.4332 14.2982 17.3798 10.6635 17.3798C7.02877 17.3798 4.08224 14.4332 4.08224 10.7985C4.08224 7.16379 7.02877 4.21726 10.6635 4.21726C14.2982 4.21726 17.2447 7.16379 17.2447 10.7985Z" fill="#BD002A"/>
</g>
<defs>
<clipPath id="clip0_4_7077">
<rect width="19.7437" height="19.7437" fill="white" transform="translate(0.791626 0.926758)"/>
</clipPath>
</defs>
</svg>
