<svg width="18" height="19" viewBox="0 0 18 19" fill="none" xmlns="http://www.w3.org/2000/svg">
<path fill-rule="evenodd" clip-rule="evenodd" d="M3.11163 5.16143C3.11163 4.45527 3.68409 3.88281 4.39025 3.88281H8.40876C8.7114 3.88281 8.95674 4.12815 8.95674 4.43079C8.95674 4.73343 8.7114 4.97877 8.40876 4.97877H4.39025C4.28937 4.97877 4.20759 5.06055 4.20759 5.16143V13.9291C4.20759 14.03 4.28937 14.1117 4.39025 14.1117H13.1579C13.2588 14.1117 13.3406 14.03 13.3406 13.9291V9.91057C13.3406 9.60793 13.5859 9.3626 13.8885 9.3626C14.1912 9.3626 14.4365 9.60793 14.4365 9.91057V13.9291C14.4365 14.6352 13.8641 15.2077 13.1579 15.2077H4.39025C3.68409 15.2077 3.11163 14.6352 3.11163 13.9291V5.16143ZM10.0527 4.43079C10.0527 4.12815 10.298 3.88281 10.6007 3.88281H13.8885C14.1912 3.88281 14.4365 4.12815 14.4365 4.43079V7.71866C14.4365 8.0213 14.1912 8.26664 13.8885 8.26664C13.5859 8.26664 13.3406 8.0213 13.3406 7.71866V5.75373L7.70028 11.394C7.48628 11.608 7.13932 11.608 6.92532 11.394C6.71132 11.18 6.71132 10.8331 6.92532 10.6191L12.5656 4.97877H10.6007C10.298 4.97877 10.0527 4.73343 10.0527 4.43079Z" fill="#0059C8"/>
</svg>
