<svg width="27" height="28" viewBox="0 0 27 28" fill="none" xmlns="http://www.w3.org/2000/svg">
<path fill-rule="evenodd" clip-rule="evenodd" d="M16.5926 16.1966H17.4584L22.9272 21.6764L21.2942 23.3094L15.8144 17.8406V16.9748L15.5185 16.6679C14.2691 17.7419 12.6471 18.3885 10.8826 18.3885C6.94814 18.3885 3.75891 15.1993 3.75891 11.2648C3.75891 7.33035 6.94814 4.14111 10.8826 4.14111C14.8171 4.14111 18.0063 7.33035 18.0063 11.2648C18.0063 13.0293 17.3597 14.6513 16.2857 15.9007L16.5926 16.1966ZM5.95082 11.2648C5.95082 13.9938 8.1537 16.1966 10.8826 16.1966C13.6116 16.1966 15.8144 13.9938 15.8144 11.2648C15.8144 8.5359 13.6116 6.33303 10.8826 6.33303C8.1537 6.33303 5.95082 8.5359 5.95082 11.2648Z" fill="#5A657C"/>
</svg>
