<svg width="21" height="21" viewBox="0 0 21 21" fill="none" xmlns="http://www.w3.org/2000/svg">
<g clip-path="url(#clip0_4_7267)">
<path d="M9.83322 12.8496V14.4936H11.4772V12.8496H9.83322Z" fill="#BD002A"/>
<path d="M9.83322 6.2739V11.2057H11.4772V6.2739H9.83322Z" fill="#BD002A"/>
<path fill-rule="evenodd" clip-rule="evenodd" d="M10.6552 2.16406C6.11793 2.16406 2.43552 5.84648 2.43552 10.3837C2.43552 14.921 6.11793 18.6034 10.6552 18.6034C15.1925 18.6034 18.8749 14.921 18.8749 10.3837C18.8749 5.84648 15.1925 2.16406 10.6552 2.16406ZM17.231 10.3829C17.231 14.0146 14.287 16.9587 10.6553 16.9587C7.02361 16.9587 4.07955 14.0146 4.07955 10.3829C4.07955 6.75125 7.02361 3.80719 10.6553 3.80719C14.287 3.80719 17.231 6.75125 17.231 10.3829Z" fill="#BD002A"/>
</g>
<defs>
<clipPath id="clip0_4_7267">
<rect width="19.7272" height="19.7272" fill="white" transform="translate(0.791687 0.52002)"/>
</clipPath>
</defs>
</svg>
