<svg width="21" height="21" viewBox="0 0 21 21" fill="none" xmlns="http://www.w3.org/2000/svg">
<path fill-rule="evenodd" clip-rule="evenodd" d="M10.7993 7.66832C9.21048 7.66832 7.92245 8.95634 7.92245 10.5452C7.92245 12.1341 9.21048 13.4221 10.7993 13.4221C12.3882 13.4221 13.6762 12.1341 13.6762 10.5452C13.6762 8.95634 12.3882 7.66832 10.7993 7.66832ZM9.1554 10.5452C9.1554 9.63728 9.89142 8.90127 10.7993 8.90127C11.7073 8.90127 12.4433 9.63728 12.4433 10.5452C12.4433 11.4531 11.7073 12.1891 10.7993 12.1891C9.89142 12.1891 9.1554 11.4531 9.1554 10.5452Z" fill="#0059C8"/>
<path fill-rule="evenodd" clip-rule="evenodd" d="M10.7993 4.58594C6.31729 4.58594 3.69251 8.3015 2.835 10.3024C2.75884 10.4801 2.77046 10.6832 2.86638 10.8511C3.95291 12.7525 6.30333 16.5045 10.7993 16.5045C15.2954 16.5045 17.6458 12.7525 18.7323 10.8511C18.8346 10.6721 18.8406 10.4539 18.7484 10.2695C18.3151 9.40283 17.4521 7.99861 16.1477 6.80289C14.8389 5.60319 13.0532 4.58594 10.7993 4.58594ZM10.7993 15.2715C7.24559 15.2715 5.23136 12.45 4.09407 10.511C4.98295 8.65501 7.24387 5.81889 10.7993 5.81889C12.6554 5.81889 14.1574 6.65106 15.3146 7.71177C16.3405 8.65219 17.0695 9.7506 17.4936 10.5298C16.3543 12.4682 14.3416 15.2715 10.7993 15.2715Z" fill="#0059C8"/>
</svg>
