<svg width="18" height="19" viewBox="0 0 18 19" fill="none" xmlns="http://www.w3.org/2000/svg">
<path fill-rule="evenodd" clip-rule="evenodd" d="M3.09967 4.92422C3.09967 4.21747 3.67261 3.64453 4.37936 3.64453H8.40123C8.70413 3.64453 8.94967 3.89008 8.94967 4.19297C8.94967 4.49586 8.70413 4.74141 8.40123 4.74141H4.37936C4.27839 4.74141 4.19655 4.82325 4.19655 4.92422V13.6992C4.19655 13.8002 4.27839 13.882 4.37936 13.882H13.1544C13.2553 13.882 13.3372 13.8002 13.3372 13.6992V9.67734C13.3372 9.37445 13.5827 9.12891 13.8856 9.12891C14.1885 9.12891 14.434 9.37445 14.434 9.67734V13.6992C14.434 14.406 13.8611 14.9789 13.1544 14.9789H4.37936C3.67261 14.9789 3.09967 14.406 3.09967 13.6992V4.92422ZM10.0465 4.19297C10.0465 3.89008 10.2921 3.64453 10.595 3.64453H13.8856C14.1885 3.64453 14.434 3.89008 14.434 4.19297V7.48359C14.434 7.78649 14.1885 8.03203 13.8856 8.03203C13.5827 8.03203 13.3372 7.78649 13.3372 7.48359V5.51701L7.69216 11.162C7.47798 11.3762 7.13073 11.3762 6.91655 11.162C6.70238 10.9478 6.70238 10.6006 6.91655 10.3864L12.5616 4.74141H10.595C10.2921 4.74141 10.0465 4.49586 10.0465 4.19297Z" fill="#0059C8"/>
</svg>
