<svg width="21" height="21" viewBox="0 0 21 21" fill="none" xmlns="http://www.w3.org/2000/svg">
<path fill-rule="evenodd" clip-rule="evenodd" d="M10.7635 7.43213C9.17332 7.43213 7.88422 8.72123 7.88422 10.3114C7.88422 11.9016 9.17332 13.1907 10.7635 13.1907C12.3537 13.1907 13.6428 11.9016 13.6428 10.3114C13.6428 8.72123 12.3537 7.43213 10.7635 7.43213ZM9.1182 10.3114C9.1182 9.40274 9.85483 8.66611 10.7635 8.66611C11.6722 8.66611 12.4088 9.40274 12.4088 10.3114C12.4088 11.2201 11.6722 11.9567 10.7635 11.9567C9.85483 11.9567 9.1182 11.2201 9.1182 10.3114Z" fill="#0059C8"/>
<path fill-rule="evenodd" clip-rule="evenodd" d="M10.7635 4.34717C6.27771 4.34717 3.65073 8.06584 2.7925 10.0684C2.71628 10.2462 2.72791 10.4495 2.82391 10.6175C3.91134 12.5206 6.26373 16.2757 10.7635 16.2757C15.2633 16.2757 17.6157 12.5206 18.7031 10.6175C18.8055 10.4384 18.8115 10.22 18.7193 10.0355C18.2856 9.1681 17.4219 7.7627 16.1164 6.56598C14.8065 5.36527 13.0192 4.34717 10.7635 4.34717ZM10.7635 15.0417C7.20679 15.0417 5.19087 12.2178 4.05262 10.2772C4.94226 8.41965 7.20506 5.58116 10.7635 5.58115C12.6211 5.58115 14.1244 6.41402 15.2825 7.47562C16.3093 8.41683 17.039 9.51616 17.4633 10.296C16.3231 12.2361 14.3088 15.0417 10.7635 15.0417Z" fill="#0059C8"/>
</svg>
