<svg width="31" height="28" viewBox="0 0 31 28" fill="none" xmlns="http://www.w3.org/2000/svg">
<path fill-rule="evenodd" clip-rule="evenodd" d="M12.0425 5.73563C7.33224 8.46881 4.71548 11.6499 4.19221 15.2791C3.37761 20.9288 8.96957 23.6942 11.803 21.2095C14.6363 18.7249 12.9379 15.5711 10.8862 14.709C8.83459 13.8469 7.57993 14.1471 7.79879 12.9952C8.01764 11.8431 10.9365 8.64909 13.5009 7.16159C13.671 7.03088 13.7358 6.77724 13.572 6.58487C13.4642 6.45828 13.2528 6.21011 12.9379 5.84027C12.6625 5.51686 12.3987 5.52896 12.0425 5.73563Z" fill="black" fill-opacity="0.2"/>
<path fill-rule="evenodd" clip-rule="evenodd" d="M24.4431 5.73563C19.7329 8.46881 17.1161 11.6499 16.5928 15.2791C15.7782 20.9288 21.3702 23.6942 24.2036 21.2095C27.037 18.7249 25.3385 15.5711 23.2869 14.709C21.2352 13.8469 19.9805 14.1471 20.1994 12.9952C20.4183 11.8431 23.3372 8.64909 25.9015 7.16159C26.0717 7.03088 26.1364 6.77724 25.9725 6.58487C25.8648 6.45828 25.6535 6.21011 25.3385 5.84027C25.0631 5.51686 24.7993 5.52896 24.4431 5.73563Z" fill="black" fill-opacity="0.2"/>
</svg>
