<svg width="31" height="28" viewBox="0 0 31 28" fill="none" xmlns="http://www.w3.org/2000/svg">
<path fill-rule="evenodd" clip-rule="evenodd" d="M12.1739 5.70267C7.46365 8.43585 4.84689 11.617 4.32362 15.2461C3.50902 20.8958 9.10098 23.6612 11.9344 21.1765C14.7677 18.6919 13.0693 15.5381 11.0177 14.676C8.966 13.8139 7.71134 14.1142 7.9302 12.9622C8.14905 11.8102 11.0679 8.61613 13.6323 7.12864C13.8024 6.99792 13.8672 6.74428 13.7034 6.55191C13.5956 6.42532 13.3842 6.17715 13.0693 5.80731C12.7939 5.4839 12.5301 5.496 12.1739 5.70267Z" fill="black" fill-opacity="0.2"/>
<path fill-rule="evenodd" clip-rule="evenodd" d="M24.5745 5.70267C19.8643 8.43585 17.2475 11.617 16.7243 15.2461C15.9097 20.8958 21.5016 23.6612 24.335 21.1765C27.1684 18.6919 25.47 15.5381 23.4183 14.676C21.3667 13.8139 20.1119 14.1142 20.3309 12.9622C20.5497 11.8102 23.4686 8.61613 26.033 7.12863C26.2031 6.99792 26.2678 6.74428 26.104 6.55191C25.9963 6.42532 25.7849 6.17715 25.47 5.80731C25.1946 5.4839 24.9307 5.496 24.5745 5.70267Z" fill="black" fill-opacity="0.2"/>
</svg>
