<svg width="14" height="15" viewBox="0 0 14 15" fill="none" xmlns="http://www.w3.org/2000/svg">
<path d="M6.48043 1.80727C6.62619 1.35867 7.26084 1.35867 7.4066 1.80727L8.36466 4.7559C8.42985 4.95652 8.6168 5.09235 8.82775 5.09235H11.9281C12.3998 5.09235 12.5959 5.69593 12.2143 5.97318L9.70606 7.79553C9.53541 7.91952 9.464 8.1393 9.52918 8.33992L10.4872 11.2885C10.633 11.7371 10.1196 12.1102 9.73796 11.8329L7.22971 10.0106C7.05906 9.88659 6.82797 9.88659 6.65731 10.0106L4.14906 11.8329C3.76746 12.1102 3.25402 11.7371 3.39978 11.2885L4.35784 8.33992C4.42303 8.1393 4.35162 7.91952 4.18096 7.79553L1.67271 5.97318C1.29111 5.69593 1.48723 5.09235 1.95892 5.09235H5.05928C5.27023 5.09235 5.45718 4.95652 5.52236 4.7559L6.48043 1.80727Z" fill="white"/>
</svg>
