<svg width="15" height="15" viewBox="0 0 15 15" fill="none" xmlns="http://www.w3.org/2000/svg">
<path d="M7.11404 1.80727C7.2598 1.35867 7.89444 1.35867 8.0402 1.80727L8.99827 4.7559C9.06345 4.95652 9.25041 5.09235 9.46135 5.09235H12.5617C13.0334 5.09235 13.2295 5.69593 12.8479 5.97318L10.3397 7.79553C10.169 7.91952 10.0976 8.1393 10.1628 8.33992L11.1209 11.2885C11.2666 11.7371 10.7532 12.1102 10.3716 11.8329L7.86332 10.0106C7.69266 9.88659 7.46158 9.88659 7.29092 10.0106L4.78267 11.8329C4.40107 12.1102 3.88763 11.7371 4.03339 11.2885L4.99145 8.33992C5.05664 8.1393 4.98523 7.91952 4.81457 7.79553L2.30632 5.97318C1.92472 5.69593 2.12084 5.09235 2.59252 5.09235H5.69289C5.90383 5.09235 6.09079 4.95652 6.15597 4.7559L7.11404 1.80727Z" fill="white"/>
</svg>
