<svg width="15" height="15" viewBox="0 0 15 15" fill="none" xmlns="http://www.w3.org/2000/svg">
<path d="M6.84682 1.80727C6.99258 1.35867 7.62723 1.35867 7.77299 1.80727L8.73106 4.7559C8.79624 4.95652 8.9832 5.09235 9.19414 5.09235H12.2945C12.7662 5.09235 12.9623 5.69593 12.5807 5.97318L10.0725 7.79553C9.9018 7.91952 9.83039 8.1393 9.89558 8.33992L10.8536 11.2885C10.9994 11.7371 10.486 12.1102 10.1044 11.8329L7.59611 10.0106C7.42545 9.88659 7.19436 9.88659 7.02371 10.0106L4.51546 11.8329C4.13386 12.1102 3.62041 11.7371 3.76617 11.2885L4.72424 8.33992C4.78942 8.1393 4.71801 7.91952 4.54736 7.79553L2.03911 5.97318C1.65751 5.69593 1.85362 5.09235 2.32531 5.09235H5.42568C5.63662 5.09235 5.82357 4.95652 5.88876 4.7559L6.84682 1.80727Z" fill="white"/>
</svg>
