<svg width="15" height="15" viewBox="0 0 15 15" fill="none" xmlns="http://www.w3.org/2000/svg">
<path d="M7.21322 1.80727C7.35898 1.35867 7.99363 1.35867 8.13938 1.80727L9.09745 4.7559C9.16264 4.95652 9.34959 5.09235 9.56053 5.09235H12.6609C13.1326 5.09235 13.3287 5.69593 12.9471 5.97318L10.4389 7.79553C10.2682 7.91952 10.1968 8.1393 10.262 8.33992L11.22 11.2885C11.3658 11.7371 10.8524 12.1102 10.4708 11.8329L7.9625 10.0106C7.79185 9.88659 7.56076 9.88659 7.3901 10.0106L4.88185 11.8329C4.50025 12.1102 3.98681 11.7371 4.13257 11.2885L5.09063 8.33992C5.15582 8.1393 5.08441 7.91952 4.91375 7.79553L2.4055 5.97318C2.0239 5.69593 2.22002 5.09235 2.6917 5.09235H5.79207C6.00301 5.09235 6.18997 4.95652 6.25515 4.7559L7.21322 1.80727Z" fill="white"/>
</svg>
