<svg width="15" height="15" viewBox="0 0 15 15" fill="none" xmlns="http://www.w3.org/2000/svg">
<path d="M6.74764 1.80727C6.8934 1.35867 7.52805 1.35867 7.67381 1.80727L8.63188 4.7559C8.69706 4.95652 8.88401 5.09235 9.09496 5.09235H12.1953C12.667 5.09235 12.8631 5.69593 12.4815 5.97318L9.97328 7.79553C9.80262 7.91952 9.73121 8.1393 9.79639 8.33992L10.7545 11.2885C10.9002 11.7371 10.3868 12.1102 10.0052 11.8329L7.49693 10.0106C7.32627 9.88659 7.09518 9.88659 6.92452 10.0106L4.41628 11.8329C4.03467 12.1102 3.52123 11.7371 3.66699 11.2885L4.62506 8.33992C4.69024 8.1393 4.61883 7.91952 4.44817 7.79553L1.93993 5.97318C1.55833 5.69593 1.75444 5.09235 2.22613 5.09235H5.32649C5.53744 5.09235 5.72439 4.95652 5.78958 4.7559L6.74764 1.80727Z" fill="white"/>
</svg>
