<svg width="18" height="20" viewBox="0 0 18 20" fill="none" xmlns="http://www.w3.org/2000/svg">
<path d="M6.00225 14.4913C5.78807 14.7163 5.78807 15.0811 6.00225 15.3061C6.21643 15.5311 6.56368 15.5311 6.77786 15.3061L13.868 7.96843C14.0822 7.74343 14.0822 7.37862 13.868 7.15362C13.6538 6.92861 13.3066 6.92861 13.0924 7.15362L6.00225 14.4913Z" fill="#5A657C"/>
<path d="M10.9979 14.6544C10.7837 14.8794 10.7837 15.2442 10.9979 15.4692C11.2121 15.6942 11.5593 15.6942 11.7735 15.4692L13.7998 13.3405C14.014 13.1155 14.014 12.7507 13.7998 12.5257C13.5856 12.3006 13.2384 12.3006 13.0242 12.5257L10.9979 14.6544Z" fill="#5A657C"/>
</svg>
