<svg width="17" height="20" viewBox="0 0 17 20" fill="none" xmlns="http://www.w3.org/2000/svg">
<path d="M13.2467 7.16985C14.7015 8.10841 15.4288 8.57768 15.6783 9.17858C15.8962 9.70323 15.8962 10.2972 15.6783 10.822C15.4288 11.4228 14.7015 11.8921 13.2467 12.8307L6.41385 17.239C4.7992 18.2807 3.99188 18.8016 3.32565 18.7462C2.74493 18.6981 2.2126 18.3936 1.86523 17.9108C1.46671 17.3569 1.46671 16.3741 1.46671 14.4086V5.59192C1.46671 3.62642 1.46671 2.64368 1.86523 2.08979C2.2126 1.60699 2.74493 1.30243 3.32565 1.25423C3.99188 1.19895 4.7992 1.7198 6.41385 2.76152L13.2467 7.16985Z" fill="white" stroke="white" stroke-width="1.0625" stroke-linejoin="round"/>
</svg>
