<svg width="16" height="20" viewBox="0 0 16 20" fill="none" xmlns="http://www.w3.org/2000/svg">
    <path
        d="M12.6624 7.50789C14.149 8.46695 14.8922 8.94647 15.1471 9.5605C15.3698 10.0966 15.3698 10.7036 15.1471 11.2398C14.8922 11.8538 14.149 12.3333 12.6624 13.2924L5.68023 17.7971C4.03031 18.8616 3.20534 19.3938 2.52455 19.3372C1.93114 19.288 1.38717 18.9769 1.03221 18.4835C0.624985 17.9175 0.624985 16.9133 0.624985 14.9048V5.89547C0.624985 3.88702 0.624985 2.88281 1.03221 2.31682C1.38717 1.82346 1.93114 1.51225 2.52455 1.46299C3.20534 1.40651 4.03031 1.93874 5.68023 3.00322L12.6624 7.50789Z"
        fill="white" stroke="white" stroke-width="1.08572" stroke-linejoin="round" />
</svg>